<svg width="87" height="71" viewBox="0 0 87 71" fill="none" xmlns="http://www.w3.org/2000/svg">
<path d="M82 52C82 49.2386 79.7614 47 77 47C74.2386 47 72 49.2386 72 52C72 58.4485 82 58.4485 82 52Z" fill="#FF0844"/>
<path d="M36.5001 2.00002L6.50015 12.5C-1.50003 16 -2.00019 17.5 6.50015 20.5L36.5001 31C43 33 43 33 49.0001 31L78.5002 20.5C89.4999 16.5 89.4999 16 78.5002 12.5L49.0001 2.00002C42.9999 -0.500018 41.9999 -0.499999 36.5001 2.00002Z" fill="#FF0844"/>
<path d="M18.0009 30V42.5C24.5009 51 60.0008 52.5 68.0008 42.5V29.5C46.0008 37 46.0009 44 18.0009 30Z" fill="#FF0844"/>
<path d="M79.5 25.5L74.5 27.5V47.6689C75.2354 47.2435 76.0893 47 77 47C77.9107 47 78.7646 47.2435 79.5 47.6689L79.5 25.5Z" fill="#FF0844"/>
<path d="M79.5 68.5V56.253C77.9729 57.0308 76.0271 57.0308 74.5 56.253L74.5 68.5C74.5 71 79.5 71 79.5 68.5Z" fill="#FF0844"/>
</svg>
